# xmcd
#
# Track frame offsets: 
#        150
#        23651
#        41662
#        68801
#        87658
#        108664
#        130976
#        158158
#        176555
#        200166
#
# Disc length: 3115 seconds
#
# Revision: 2
# Processed by: cddbd v1.5.2PL0 Copyright (c) Steve Scherf et al.
# Submitted via: ExactAudioCopy v0.99pb4
#
DISCID=8d0c290a
DTITLE=Davit Benoit - Great Composers Of Jazz
DYEAR=2000
DGENRE=Jazz
TTITLE0=Brother Go To Mothers
TTITLE1=Cute
TTITLE2=Django
TTITLE3=Blue Rondo a La Turk
TTITLE4=Some Other Time
TTITLE5=Cakewalk
TTITLE6=Stardust
TTITLE7=Straight No Chaser
TTITLE8=I Loves You Porgy
TTITLE9=Waltz For Debby
EXTD=
EXTT0=
EXTT1=
EXTT2=
EXTT3=
EXTT4=
EXTT5=
EXTT6=
EXTT7=
EXTT8=
EXTT9=
PLAYORDER=
